<?xml version="1.0" standalone="no"?>
<!DOCTYPE svg PUBLIC "-//W3C//DTD SVG 20010904//EN"
 "http://www.w3.org/TR/2001/REC-SVG-20010904/DTD/svg10.dtd">
<svg version="1.0" xmlns="http://www.w3.org/2000/svg"
 width="513.000000pt" height="513.000000pt" viewBox="0 0 513.000000 513.000000"
 preserveAspectRatio="xMidYMid meet">
<metadata>
Created by potrace 1.14, written by Peter Selinger 2001-2017
</metadata>
<g transform="translate(0.000000,513.000000) scale(0.100000,-0.100000)"
fill="#000000" stroke="none">
<path d="M1987 5034 c-2 -3 -16 -7 -29 -9 -48 -9 -96 -35 -139 -75 -24 -22
-39 -40 -35 -40 5 0 2 -7 -5 -17 -11 -13 -14 -74 -13 -312 3 -467 13 -1134 19
-1139 2 -2 0 -12 -5 -22 -5 -10 -6 -20 -3 -24 3 -3 7 -49 7 -102 l1 -96 -30
-16 c-132 -68 -329 -244 -368 -329 -6 -13 -14 -23 -18 -23 -4 0 -10 -11 -13
-25 -4 -14 -11 -25 -16 -25 -6 0 -10 -5 -10 -10 0 -6 -11 -32 -24 -59 -24 -51
-41 -100 -38 -113 1 -5 -2 -8 -6 -8 -4 0 -8 -8 -9 -17 -1 -10 -10 -49 -19 -88
-10 -44 -17 -116 -18 -195 -1 -143 7 -164 79 -197 37 -17 102 -18 1260 -18
671 1 1236 4 1256 8 76 15 116 80 113 182 -9 364 -169 670 -446 855 -48 32
-96 61 -107 65 -21 6 -21 7 -15 438 11 819 10 1270 -3 1274 -7 3 -13 12 -13
20 0 20 -44 58 -99 85 -54 26 -73 29 -191 33 -75 2 -104 -2 -142 -18 -62 -25
-110 -73 -143 -142 l-28 -55 -1 -813 c-1 -807 -1 -812 -21 -807 -27 6 -252 6
-290 0 l-30 -5 -1 815 0 815 -22 45 c-33 68 -74 112 -128 139 -40 20 -66 25
-150 27 -56 2 -104 1 -107 -2z"/>
<path d="M1338 2010 c-17 -14 -22 -30 -25 -80 -3 -74 12 -107 54 -112 l28 -3
0 -265 c0 -146 -4 -264 -8 -262 -10 3 -67 -26 -68 -36 -1 -4 -2 -37 -4 -74 -5
-104 -6 -103 251 -102 212 1 286 7 333 27 14 5 28 11 31 11 23 4 86 56 108 89
39 57 43 71 47 150 3 50 -1 79 -16 115 -19 47 -66 106 -90 114 -8 3 -3 18 14
46 73 115 51 265 -50 336 -79 55 -98 59 -351 61 -209 3 -235 1 -254 -15z m418
-189 c5 -1 20 -10 32 -21 39 -36 23 -119 -24 -127 -32 -5 -122 -5 -131 0 -7 5
-8 32 -4 133 1 18 7 20 59 18 31 -1 62 -2 68 -3z m67 -380 c40 -39 41 -105 2
-138 -23 -20 -37 -23 -111 -23 -46 0 -84 3 -85 8 0 4 -1 45 -2 90 -2 64 1 86
12 92 8 4 46 6 85 4 62 -3 74 -7 99 -33z"/>
<path d="M2101 2009 c-22 -21 -23 -24 -23 -107 -1 -57 17 -81 58 -82 21 0 21
-3 22 -222 1 -167 5 -238 17 -282 46 -176 170 -259 376 -252 129 4 239 60 292
146 11 19 23 37 26 40 4 3 8 12 9 20 2 8 9 38 17 65 11 44 14 124 15 418 0 58
2 67 18 67 10 0 28 9 41 21 l22 21 18 -21 c10 -12 30 -21 43 -21 l25 0 -1
-267 c-1 -252 -2 -268 -19 -268 -10 0 -28 -10 -41 -22 -19 -19 -22 -31 -21
-89 2 -97 6 -99 182 -98 186 1 193 5 193 108 0 79 -5 89 -53 100 l-28 7 2 150
1 150 21 -30 c12 -16 44 -65 72 -108 52 -82 236 -365 242 -372 2 -3 41 -4 86
-3 125 2 117 -25 117 393 0 336 1 349 19 349 42 0 61 31 63 100 3 105 2 106
-177 107 -135 1 -152 -1 -174 -18 -21 -17 -24 -28 -24 -90 0 -75 14 -98 58
-99 20 0 21 -6 21 -150 0 -95 -3 -147 -9 -141 -5 5 -37 53 -71 105 -204 318
-250 386 -265 390 -9 3 -63 4 -121 4 -86 -1 -110 -4 -132 -20 -26 -18 -27 -18
-40 0 -12 17 -28 19 -173 19 -147 0 -162 -1 -182 -20 -20 -18 -23 -31 -23 -90
0 -75 12 -96 58 -97 26 0 24 19 24 -236 0 -219 -8 -258 -55 -289 -38 -24 -129
-22 -172 5 -52 32 -59 66 -60 308 -2 211 -2 212 20 212 12 0 31 10 42 23 17
18 20 34 19 89 -1 40 -7 73 -14 80 -9 9 -59 13 -177 14 -149 2 -165 0 -184
-17z"/>
<path d="M1266 1013 c-13 -7 -32 -25 -42 -40 -17 -26 -19 -52 -20 -343 -1
-173 0 -327 3 -342 7 -35 58 -87 110 -110 40 -18 92 -19 1242 -19 947 0 1209
3 1243 13 27 8 58 29 85 57 l43 45 0 319 c0 342 -4 379 -48 411 -25 19 -56 20
-1309 20 -985 1 -1289 -2 -1307 -11z"/>
</g>
</svg>
